<?xml version="1.0" standalone="no"?>
<!DOCTYPE svg PUBLIC "-//W3C//DTD SVG 20010904//EN"
 "http://www.w3.org/TR/2001/REC-SVG-20010904/DTD/svg10.dtd">
<svg version="1.0" xmlns="http://www.w3.org/2000/svg" fill="#000000"
 width="512pt" height="512pt" viewBox="300 180 500 500"
preserveAspectRatio="xMidYMid meet">

<defs>
  <clipPath id="news-panel">
    <path d="M820 275 H1510 L1455 510 Q1448 540 1415 540 H755 Z"/>
  </clipPath>
</defs>
<rect width="1774" height="887" fill="#ffffff"/>
<g id="logo-art" transform="translate(0.000000,887.000000) scale(0.100000,-0.100000)"
fill="inherit" stroke="none">
<path d="M0 4435 l0 -4435 8870 0 8870 0 0 4435 0 4435 -8870 0 -8870 0 0
-4435z m5859 1668 c0 -10 -33 -144 -72 -298 l-72 -280 -351 -3 -351 -2 -12
-58 c-7 -31 -110 -435 -229 -897 l-217 -840 -338 -3 c-316 -2 -337 -1 -337 15
0 18 23 108 155 613 109 418 295 1150 295 1160 0 6 -136 10 -376 10 -353 0
-375 1 -370 18 16 57 136 519 136 524 0 4 4 18 10 32 l10 26 1060 0 c1003 0
1060 -1 1059 -17z m2031 8 c0 -6 -32 -141 -71 -300 l-71 -291 -609 0 -609 0
-9 -22 c-5 -13 -27 -97 -50 -188 -23 -91 -44 -173 -47 -182 -5 -17 25 -18 524
-18 l529 0 -59 -242 c-32 -134 -63 -260 -69 -280 l-10 -38 -527 -2 -527 -3
-53 -200 c-29 -110 -77 -294 -106 -410 l-53 -210 -333 -3 c-184 -1 -337 1
-342 6 -4 4 3 48 16 97 13 50 49 187 80 305 31 118 90 346 131 505 89 341 375
1470 375 1479 0 3 425 6 945 6 589 0 945 -4 945 -9z m6170 -606 c114 -27 185
-64 254 -131 30 -30 86 -112 86 -126 0 -19 -247 -188 -274 -188 -3 0 -13 17
-21 37 -35 84 -115 127 -235 127 -124 -1 -209 -55 -224 -144 -13 -76 30 -111
212 -170 304 -100 390 -179 400 -366 13 -245 -158 -448 -434 -515 -130 -32
-309 -30 -421 3 -101 31 -182 78 -240 143 -50 55 -89 125 -81 146 5 12 73 56
230 149 l37 21 16 -31 c25 -47 84 -109 126 -131 21 -10 69 -24 108 -31 165
-28 321 51 321 162 0 72 -35 95 -259 171 -172 59 -240 96 -292 162 -85 106
-91 249 -16 407 105 225 436 367 707 305z m-5041 -197 c46 -101 141 -302 210
-447 l125 -264 32 129 c18 71 64 268 104 439 39 170 74 313 76 317 6 9 317 11
326 3 2 -3 -28 -141 -68 -308 -40 -166 -96 -399 -124 -517 -27 -118 -72 -307
-99 -420 l-48 -205 -154 -3 -155 -2 -50 112 c-112 248 -368 787 -373 783 -5
-6 -31 -108 -89 -355 -23 -96 -61 -256 -85 -355 l-43 -180 -154 -3 c-85 -1
-159 -1 -165 2 -8 3 17 125 77 378 80 339 192 822 233 1006 l17 72 161 0 162
0 84 -182z m2115 173 c3 -4 -9 -69 -27 -142 l-33 -134 -339 -5 -339 -5 -33
-139 c-19 -76 -32 -141 -29 -143 2 -2 137 -4 300 -3 251 0 296 -2 296 -14 0
-8 -11 -63 -25 -123 -14 -59 -27 -118 -30 -130 l-5 -23 -309 0 -308 0 -33
-137 c-18 -76 -35 -144 -37 -150 -4 -10 69 -13 346 -13 274 0 351 -3 351 -12
0 -7 -15 -71 -33 -143 l-33 -130 -513 -3 -513 -2 7 37 c3 21 60 268 126 548
66 281 138 587 160 680 22 94 42 176 44 183 3 9 113 12 504 12 275 0 502 -4
505 -9z m459 -281 c4 -157 11 -382 15 -500 l7 -215 191 375 c105 206 222 432
259 503 l67 128 152 -3 151 -3 6 -95 c4 -52 14 -250 24 -440 9 -190 20 -371
23 -403 l7 -58 164 338 c91 186 200 411 244 501 l79 163 174 -1 c117 -1 174
-5 174 -13 0 -10 -36 -82 -367 -717 -99 -190 -224 -432 -277 -537 l-98 -193
-178 0 -178 0 -6 63 c-6 59 -40 537 -53 751 -5 84 -8 96 -19 81 -14 -19 -284
-527 -401 -755 l-69 -135 -180 0 -179 0 -26 455 c-15 250 -35 573 -43 718 -9
145 -14 268 -10 273 3 6 74 8 172 7 l167 -3 8 -285z m895 -2204 c17 0 32 -1
32 -2 0 -32 -35 -43 -71 -23 -15 7 -24 7 -35 -2 -11 -9 -14 -8 -14 3 0 21 23
39 40 31 8 -4 30 -7 48 -7z m-5557 -7 c15 -8 24 -7 35 2 19 16 30 4 14 -16
-14 -17 -47 -20 -70 -5 -9 5 -19 5 -27 -2 -19 -15 -29 -2 -13 17 15 18 34 19
61 4z m-2841 -194 c0 -113 -2 -135 -15 -135 -13 0 -15 22 -15 135 0 113 2 135
15 135 13 0 15 -22 15 -135z m217 113 c11 -13 44 -58 73 -100 29 -43 56 -78
60 -78 4 0 8 44 9 97 1 54 4 99 6 101 2 2 8 1 14 -3 7 -4 11 -55 11 -136 0
-166 -8 -168 -105 -29 -39 55 -73 100 -77 100 -5 0 -8 -45 -8 -100 0 -82 -3
-100 -15 -100 -13 0 -15 21 -15 128 0 151 6 165 47 120z m501 5 c3 -10 -14
-13 -62 -13 l-66 0 0 -45 0 -45 60 0 c47 0 60 -3 60 -15 0 -12 -13 -15 -60
-15 l-60 0 0 -60 c0 -47 -3 -60 -15 -60 -13 0 -15 22 -15 135 l0 136 77 -3
c50 -2 78 -7 81 -15z m353 -22 c36 -35 39 -43 39 -92 0 -133 -127 -194 -216
-105 -89 89 -31 236 94 236 38 0 50 -5 83 -39z m358 15 c31 -28 29 -90 -5
-121 l-26 -24 31 -51 c29 -46 29 -50 11 -50 -13 0 -31 17 -51 50 -26 42 -36
50 -60 50 -28 0 -29 -1 -29 -50 0 -43 -3 -50 -20 -50 -19 0 -20 7 -20 136 l0
136 74 -4 c55 -2 80 -8 95 -22z m258 -53 c19 -43 40 -89 45 -103 10 -23 14
-18 59 78 38 80 53 103 66 100 16 -3 18 -18 21 -136 2 -113 0 -132 -13 -132
-12 0 -15 18 -15 107 0 59 -4 103 -8 98 -5 -6 -25 -49 -46 -97 -22 -49 -45
-88 -52 -88 -8 0 -34 42 -58 93 l-44 92 -1 -102 c-1 -85 -4 -103 -16 -103 -13
0 -15 22 -15 135 0 129 1 135 20 135 16 0 29 -18 57 -77z m505 -23 c21 -52 45
-112 53 -132 14 -35 14 -38 -3 -38 -9 0 -24 15 -32 33 -14 30 -19 32 -72 35
-57 3 -58 3 -75 -33 -15 -31 -43 -49 -43 -26 0 5 19 58 43 118 24 59 47 116
50 126 15 40 42 12 79 -83z m368 85 c28 -15 38 -34 24 -48 -4 -3 -18 3 -32 13
-74 59 -167 -13 -148 -115 13 -68 95 -97 150 -54 21 17 30 19 39 10 16 -16
-34 -61 -69 -61 -13 0 -24 -4 -24 -10 0 -5 4 -10 9 -10 15 0 22 -32 10 -46
-13 -16 -55 -19 -64 -4 -4 6 5 10 20 10 17 0 25 4 22 13 -2 6 -10 11 -16 10
-6 -2 -11 5 -11 15 0 9 -15 24 -32 32 -48 23 -69 58 -70 117 0 90 45 142 125
143 21 0 51 -7 67 -15z m290 11 c0 -2 24 -63 54 -135 49 -119 53 -131 35 -131
-13 0 -24 10 -30 29 -9 25 -17 30 -52 33 -65 6 -89 -1 -101 -33 -6 -17 -18
-29 -28 -29 -16 0 -15 6 7 63 70 185 80 207 100 207 8 0 15 -2 15 -4z m441
-35 c34 -34 39 -44 39 -85 0 -71 -30 -120 -85 -141 -42 -17 -48 -17 -89 -1
-59 23 -80 56 -81 128 0 89 46 138 134 138 37 0 49 -5 82 -39z m585 6 c48 -44
58 -114 25 -178 -21 -39 -21 -42 -5 -60 27 -30 3 -45 -24 -16 -20 21 -27 23
-60 14 -134 -36 -211 179 -90 253 53 32 111 27 154 -13z m224 -62 c0 -88 2
-98 25 -120 33 -34 77 -33 104 1 18 23 21 41 21 120 0 77 3 94 15 94 12 0 15
-19 15 -110 0 -104 -2 -112 -24 -135 -49 -49 -148 -37 -175 21 -6 14 -11 70
-11 124 0 82 3 100 15 100 12 0 15 -17 15 -95z m518 78 c3 -10 -15 -13 -67
-13 l-71 0 0 -45 0 -45 60 0 c47 0 60 -3 60 -15 0 -12 -13 -15 -60 -15 l-60 0
0 -45 0 -45 70 0 c56 0 70 -3 70 -15 0 -12 -17 -15 -90 -15 l-90 0 0 128 c0
71 3 132 7 136 13 12 166 2 171 -11z m434 -80 c23 -51 44 -93 47 -93 4 0 27
42 51 93 35 70 50 92 65 92 19 0 20 -8 23 -132 2 -128 2 -133 -18 -133 -19 0
-20 6 -20 108 l0 107 -44 -95 c-24 -52 -49 -96 -55 -98 -6 -2 -31 38 -56 90
l-44 93 -1 -102 c0 -85 -3 -103 -15 -103 -13 0 -15 22 -15 136 0 131 1 135 21
132 15 -2 31 -26 61 -95z m534 78 c67 -41 81 -138 30 -206 -106 -138 -305 25
-209 172 35 53 121 69 179 34z m214 -2 c6 -11 26 -61 45 -112 l33 -92 15 35
c7 19 26 70 41 113 22 61 32 77 48 77 15 0 18 -4 13 -17 -4 -10 -28 -71 -53
-136 -62 -159 -70 -158 -134 18 -26 72 -48 131 -48 133 0 1 7 2 15 2 8 0 19
-9 25 -21z m507 4 c3 -9 -17 -13 -68 -15 l-73 -3 -2 -30 c-2 -50 4 -55 67 -55
46 0 59 -3 59 -15 0 -12 -13 -15 -60 -15 l-60 0 0 -45 0 -45 70 0 c56 0 70 -3
70 -15 0 -12 -17 -15 -90 -15 l-90 0 0 135 0 136 87 -3 c56 -2 88 -7 90 -15z
m510 0 c64 -30 89 -126 51 -196 -20 -38 -69 -57 -145 -57 l-73 0 0 128 c0 71
3 132 7 135 13 14 125 7 160 -10z m393 2 c0 -12 -14 -15 -70 -15 l-70 0 0 -45
0 -45 60 0 c47 0 60 -3 60 -15 0 -12 -13 -15 -60 -15 l-60 0 0 -45 0 -45 70 0
c56 0 70 -3 70 -15 0 -12 -17 -15 -90 -15 l-90 0 0 128 c0 71 3 132 7 135 3 4
44 7 90 7 67 0 83 -3 83 -15z m337 -9 c23 -20 26 -27 15 -38 -9 -9 -15 -10
-20 -2 -14 22 -54 36 -87 30 -50 -10 -70 -39 -70 -103 0 -48 4 -58 28 -79 34
-29 85 -31 119 -5 15 12 29 16 38 11 19 -12 -33 -58 -76 -66 -40 -7 -99 19
-126 57 -25 34 -26 117 -2 158 36 62 130 81 181 37z m213 -111 c0 -113 -2
-135 -15 -135 -13 0 -15 22 -15 135 0 113 2 135 15 135 13 0 15 -22 15 -135z
m315 119 c25 -16 34 -44 15 -44 -6 0 -22 7 -35 16 -29 19 -74 15 -89 -8 -17
-28 3 -49 64 -69 80 -26 102 -69 60 -122 -36 -46 -129 -42 -169 7 -13 15 -13
19 -1 26 10 6 22 2 36 -11 29 -27 91 -23 111 7 12 19 12 24 -2 38 -9 8 -34 20
-57 26 -49 14 -88 50 -88 84 0 55 99 87 155 50z m380 -14 c52 -49 57 -153 11
-203 -35 -38 -96 -53 -142 -36 -57 22 -79 59 -79 133 0 68 9 86 60 118 41 26
116 20 150 -12z m363 13 c3 -10 -15 -13 -67 -13 l-71 0 0 -45 0 -45 60 0 c47
0 60 -3 60 -15 0 -12 -13 -15 -60 -15 l-60 0 0 -45 0 -45 70 0 c56 0 70 -3 70
-15 0 -12 -17 -15 -90 -15 l-90 0 0 128 c0 71 3 132 7 136 13 12 166 2 171
-11z m300 1 c24 -16 30 -44 10 -44 -7 0 -22 7 -32 15 -25 19 -70 19 -86 0 -23
-27 -7 -49 51 -70 73 -26 89 -40 89 -79 0 -65 -77 -103 -143 -71 -48 22 -66
44 -47 55 9 6 24 2 41 -11 33 -23 82 -25 103 -3 34 33 18 52 -61 78 -83 27
-105 76 -57 121 32 29 97 34 132 9z"/>
<path d="M5010 2872 c-63 -64 -24 -182 62 -182 63 0 106 57 94 124 -10 51 -35
76 -83 83 -37 5 -46 2 -73 -25z"/>
<path d="M5390 2844 l0 -57 46 7 c56 7 74 20 74 52 0 30 -36 54 -82 54 l-38 0
0 -56z"/>
<path d="M6202 2825 c-12 -31 -22 -59 -22 -61 0 -2 22 -4 49 -4 l50 0 -21 53
c-12 28 -24 56 -28 60 -4 4 -17 -17 -28 -48z"/>
<path d="M6897 2821 c-9 -27 -17 -51 -17 -55 0 -3 21 -6 46 -6 33 0 45 4 41
13 -30 76 -40 97 -46 97 -3 0 -14 -22 -24 -49z"/>
<path d="M7229 2871 c-62 -63 -23 -181 60 -181 93 0 133 123 60 184 -41 35
-83 34 -120 -3z"/>
<path d="M7819 2871 c-61 -61 -23 -181 57 -181 32 0 34 2 28 25 -7 28 7 33 26
10 17 -20 27 -11 39 33 30 108 -75 188 -150 113z"/>
<path d="M9546 2878 c-23 -19 -30 -35 -34 -76 -4 -47 -2 -54 26 -82 39 -38 88
-41 129 -6 24 21 28 31 28 80 0 67 -22 95 -82 103 -32 4 -45 1 -67 -19z"/>
<path d="M10780 2795 l0 -105 43 0 c86 0 134 61 111 143 -11 38 -61 67 -116
67 l-38 0 0 -105z"/>
<path d="M12401 2874 c-71 -60 -33 -184 57 -184 52 0 92 45 92 105 0 38 -5 52
-29 76 -37 37 -79 38 -120 3z"/>
</g>
<path d="M820 275 H1510 L1455 510 Q1448 540 1415 540 H755 Z" fill="#ffffff"/>
<use href="#logo-art" fill="#E30613" clip-path="url(#news-panel)"/>
<path d="M371 533 H746 L742 548 H367 Z" fill="#E30613"/>
<path d="M1374 585 H1389 L1381 631 H1366 Z" fill="#E30613"/>
<path d="M817 272 H1513 L1458 513 Q1451 543 1412 543 H752 Z" fill="#000000"/>
<rect x="0" y="558" width="1774" height="329" fill="#000000"/>
</svg>

